<svg xmlns="http://www.w3.org/2000/svg" xmlns:xlink="http://www.w3.org/1999/xlink" viewBox="0,0,256,256" width="500px" height="500px" fill-rule="nonzero"><g fill-opacity="0.5098" fill="#2e2e2e" fill-rule="nonzero" stroke="none" stroke-width="1" stroke-linecap="butt" stroke-linejoin="miter" stroke-miterlimit="10" stroke-dasharray="" stroke-dashoffset="0" font-family="none" font-weight="none" font-size="none" text-anchor="none" style="mix-blend-mode: normal"><g transform="scale(5.33333,5.33333)"><path d="M23.96289,3.00586c-0.22589,0.0058 -0.44755,0.06255 -0.64844,0.16602l-17.31445,8.89844c-0.68906,0.23418 -1.11064,0.92914 -1,1.64844v21.78125c0.00011,0.56214 0.31448,1.07704 0.81445,1.33398l17.5,8.99023c0.4303,0.22107 0.9408,0.22107 1.37109,0l17.5,-8.99023c0.49998,-0.25694 0.81435,-0.77185 0.81445,-1.33398v-21.73633c0.14316,-0.75549 -0.3081,-1.4969 -1.04492,-1.7168h-0.00195l-17.26758,-8.875c-0.2232,-0.11494 -0.47167,-0.17202 -0.72266,-0.16602zM40,20.31445v14.26953l-16,8.21875l-16,-8.21875v-12.98633l2.00977,0.9375l-0.00195,0.95117c0,0.188 0.10449,0.35931 0.27149,0.44531l1.97656,1.01563c0.155,0.08 0.33928,0.07342 0.48828,-0.01758c0.148,-0.091 0.24023,-0.25273 0.24023,-0.42773v-2.69727l2.00391,0.99414v1.30469c0,0.188 0.10548,0.35931 0.27149,0.44531l1.74023,0.89258l0.01367,1.60352c0.001,0.19 0.11025,0.36231 0.28125,0.44531l2.98438,1.44727c0.069,0.034 0.14475,0.05078 0.21875,0.05078c0.092,0 0.18463,-0.02517 0.26563,-0.07617c0.146,-0.091 0.23337,-0.24987 0.23438,-0.42187l0.01172,-2.34766l2.99023,1.58008v2.28711c0,0.174 0.08928,0.33478 0.23828,0.42578c0.08,0.049 0.17072,0.07422 0.26172,0.07422c0.078,0 0.15456,-0.01869 0.22656,-0.05469l2.98828,-1.52148c0.167,-0.085 0.27048,-0.25636 0.27148,-0.44336l0.01563,-2.25195l1.98828,-0.96484l0.01367,3.2168c0,0.174 0.09028,0.33383 0.23828,0.42383c0.148,0.091 0.33328,0.09753 0.48828,0.01953l2.00781,-1.03125c0.167,-0.085 0.27148,-0.25731 0.27148,-0.44531v-5.26953l2.00391,-0.99609v3.31055c0,0.174 0.09223,0.33478 0.24023,0.42578c0.15,0.091 0.33328,0.09758 0.48828,0.01758l1.97656,-1.01367c0.167,-0.086 0.27148,-0.25831 0.27148,-0.44531l-0.00195,-2.23242zM37.54297,26.00586c-0.08225,-0.00575 -0.16519,0.00942 -0.24219,0.04492l-2.02344,0.92773c-0.179,0.082 -0.29397,0.26198 -0.29297,0.45898l0.01563,2.04883c0.001,0.174 0.09123,0.33383 0.24023,0.42383c0.08,0.048 0.16977,0.07227 0.25977,0.07227c0.078,0 0.15652,-0.01869 0.22852,-0.05469l2.00781,-1.03125c0.167,-0.085 0.27148,-0.25731 0.27148,-0.44531v-1.94531c0,-0.17 -0.08747,-0.32988 -0.23047,-0.42187c-0.072,-0.0455 -0.15212,-0.07238 -0.23437,-0.07812zM13.45898,28.02148c-0.08237,0.00575 -0.16237,0.03213 -0.23437,0.07813c-0.143,0.092 -0.23047,0.25088 -0.23047,0.42188v1.94727c0,0.188 0.10548,0.35736 0.27148,0.44336l2.00781,1.03125c0.072,0.037 0.14951,0.05469 0.22851,0.05469c0.09,0 0.18077,-0.02231 0.25977,-0.07031c0.149,-0.09 0.23923,-0.24983 0.24023,-0.42383l0.01563,-2.05078c0.002,-0.197 -0.11202,-0.37698 -0.29102,-0.45898l-2.02344,-0.92773c-0.0775,-0.035 -0.16177,-0.05067 -0.24414,-0.04492zM32.54492,30.01953c-0.08237,-0.00575 -0.16519,0.00942 -0.24219,0.04492l-2.02344,0.92773c-0.179,0.082 -0.29397,0.26298 -0.29297,0.45898l0.01563,2.05078c0.001,0.173 0.09124,0.33383 0.24023,0.42383c0.079,0.048 0.16977,0.07031 0.25977,0.07031c0.078,0 0.15652,-0.01869 0.22852,-0.05469l2.00781,-1.03125c0.167,-0.086 0.27148,-0.25536 0.27148,-0.44336v-1.94727c0,-0.17 -0.08747,-0.32792 -0.23047,-0.41992c-0.0715,-0.0465 -0.152,-0.07433 -0.23437,-0.08008z"></path></g></g></svg>