<svg xmlns="http://www.w3.org/2000/svg" xmlns:xlink="http://www.w3.org/1999/xlink" viewBox="0,0,256,256" width="50px" height="50px" fill-rule="nonzero"><g fill="#af9e77" fill-rule="nonzero" stroke="none" stroke-width="1" stroke-linecap="butt" stroke-linejoin="miter" stroke-miterlimit="10" stroke-dasharray="" stroke-dashoffset="0" font-family="none" font-weight="none" font-size="none" text-anchor="none" style="mix-blend-mode: normal"><g transform="scale(5.12,5.12)"><path d="M14,4c-5.514,0 -10,4.486 -10,10v22c0,5.514 4.486,10 10,10h22c5.514,0 10,-4.486 10,-10v-22c0,-5.514 -4.486,-10 -10,-10zM27.85547,9.4375c0.12922,-0.01189 0.26133,0.00047 0.39258,0.04297c2.083,0.66 3.81267,1.90522 5.13867,3.69922c0.329,0.444 0.23401,1.06848 -0.20898,1.39648c-0.179,0.133 -0.3897,0.19726 -0.5957,0.19727c-0.307,0 -0.60869,-0.14225 -0.80469,-0.40625c-1.086,-1.469 -2.43781,-2.44247 -4.13281,-2.98047c-0.527,-0.167 -0.81739,-0.72791 -0.65039,-1.25391c0.12525,-0.39525 0.47367,-0.65964 0.86133,-0.69531zM19.47266,12.16797c0.57766,-0.00709 1.16405,0.11008 1.7168,0.36133c0.433,0.197 0.81481,0.23755 1.25781,0.06055c1.16,-0.473 2.2615,-0.24702 3.3125,0.33398c0.933,0.523 1.72919,1.22208 2.36719,2.08008c0.569,0.739 1.08867,1.51662 1.63867,2.26563c0.187,0.246 0.28537,0.57192 0.60938,0.66992c0.255,-0.02 0.38206,-0.21747 0.53906,-0.35547c2.22,-1.892 5.09863,-1.16236 6.14063,1.55664c0.373,0.966 0.5492,1.97991 0.6582,3.00391c0.314,3.122 0.0492,6.16745 -1.2168,9.06445c-2.269,5.202 -8.35928,7.93053 -13.48828,6.01953c-2.397,-0.887 -4.49612,-2.29777 -6.07812,-4.25977c-1.601,-2 -2.99206,-4.22348 -3.91406,-6.64648c-0.294,-0.581 -0.5495,-1.19103 -0.6875,-1.83203c-0.294,-1.301 -0.23461,-2.55176 0.65039,-3.63477c0.285,-0.335 0.35351,-0.70905 0.35351,-1.12305c-0.03,-1.419 0.56045,-2.54333 1.68945,-3.36133c0.373,-0.275 0.59755,-0.5995 0.68555,-1.0625c0.38325,-1.98075 2.03266,-3.11934 3.76563,-3.14062zM19.5,14.48438c-0.33312,-0.00863 -0.67184,0.10353 -0.96484,0.33203c-0.546,0.428 -0.69323,1.11525 -0.36523,1.78125c0.13,0.279 0.31709,0.53592 0.49609,0.79492c1.343,2.018 2.68434,4.03864 4.02734,6.05664c0.169,0.268 0.46759,0.52755 0.30859,0.93555c-0.477,0.09 -0.61764,-0.28787 -0.80664,-0.54687c-1.163,-1.562 -2.31552,-3.14408 -3.47852,-4.70508c-0.169,-0.229 -0.33811,-0.46725 -0.53711,-0.65625c-0.558,-0.508 -1.33316,-0.54786 -1.91016,-0.13086c-0.577,0.417 -0.73519,1.16238 -0.36719,1.85938c0.149,0.278 0.33858,0.52616 0.51758,0.78516c1.323,1.84 2.6438,3.6803 3.9668,5.5293c0.189,0.279 0.46828,0.51786 0.48828,1.00586c-0.518,0.289 -0.6963,-0.1292 -0.9043,-0.4082c-0.974,-1.273 -1.93053,-2.55489 -2.89453,-3.83789c-0.229,-0.308 -0.46739,-0.59498 -0.77539,-0.83398c-0.398,-0.298 -0.83473,-0.48822 -1.30273,-0.19922c-0.457,0.279 -0.54656,0.75691 -0.47656,1.25391c0.089,0.587 0.28764,1.16245 0.55664,1.68945c1.014,1.999 2.16706,3.91945 3.53906,5.68945c0.806,1.054 1.76164,1.95797 2.80664,2.79297c5.082,4.038 11.40439,0.74516 13.02539,-3.58984c0.587,-1.582 0.92639,-3.20305 1.02539,-4.87305c0.098,-1.683 -0.08148,-3.34384 -0.52148,-4.96484c-0.159,-0.616 -0.43617,-1.21148 -1.20117,-1.27148c-0.765,-0.06 -1.22403,0.38714 -1.58203,0.99414c-0.338,0.576 -0.48725,1.22237 -0.65625,1.85938c-0.099,0.358 -0.11911,0.76584 -0.53711,0.96484c-0.567,0.02 -0.79692,-0.42669 -1.04492,-0.80469c-0.765,-1.163 -1.49181,-2.346 -2.25781,-3.5c-0.567,-0.865 -1.16191,-1.72056 -1.87891,-2.47656c-0.367,-0.397 -0.75661,-0.7642 -1.22461,-1.0332c-0.488,-0.278 -0.984,-0.45808 -1.5,-0.08008c-0.378,0.288 -0.42667,0.81542 -0.13867,1.48242c0.13,0.288 0.28827,0.56794 0.44727,0.83594c0.855,1.472 1.72045,2.9333 2.56445,4.4043c0.159,0.268 0.45847,0.5373 0.23047,0.9043c-0.477,0.02 -0.59616,-0.357 -0.78516,-0.625c-1.462,-2.088 -2.90519,-4.18716 -4.36719,-6.28516c-0.18,-0.248 -0.35694,-0.52733 -0.58594,-0.73633c-0.2735,-0.254 -0.60242,-0.38395 -0.93555,-0.39258zM27.94727,23.36133c0.21487,0.03475 0.41769,0.1508 0.55469,0.3418c0.274,0.381 0.18764,0.9125 -0.19336,1.1875c-1.438,1.034 -2.45066,2.47897 -3.09766,4.41797c-0.119,0.355 -0.45259,0.58203 -0.80859,0.58203c-0.089,0 -0.17953,-0.01592 -0.26953,-0.04492c-0.445,-0.149 -0.68611,-0.63117 -0.53711,-1.07617c0.765,-2.288 1.97975,-4.00877 3.71875,-5.25977c0.1895,-0.136 0.41794,-0.18319 0.63281,-0.14844zM30.19727,24.57617c0.47,0 0.85061,0.38256 0.84961,0.85156c-0.002,1.645 0.33987,3.0443 1.04688,4.2793c0.232,0.408 0.09259,0.92816 -0.31641,1.16016c-0.133,0.076 -0.27887,0.11328 -0.42187,0.11328c-0.295,0 -0.58228,-0.15469 -0.73828,-0.42969c-0.847,-1.479 -1.27253,-3.203 -1.26953,-5.125c0,-0.47 0.38061,-0.84961 0.84961,-0.84961zM12.7207,31.65039c0.38967,0.01495 0.75024,0.25873 0.89649,0.64648c1.122,2.969 3.21444,5.05681 6.39844,6.38281c0.511,0.213 0.75402,0.79764 0.54102,1.30664c-0.159,0.385 -0.53183,0.61523 -0.92383,0.61523c-0.129,0 -0.25977,-0.02317 -0.38477,-0.07617c-3.67,-1.526 -6.19295,-4.05748 -7.50195,-7.52148c-0.195,-0.517 0.06503,-1.09406 0.58203,-1.28906c0.1295,-0.049 0.26269,-0.06944 0.39258,-0.06445z"></path></g></g></svg>