<svg xmlns="http://www.w3.org/2000/svg" xmlns:xlink="http://www.w3.org/1999/xlink" viewBox="0,0,256,256" width="50px" height="50px" fill-rule="nonzero"><g fill="#af9e77" fill-rule="nonzero" stroke="none" stroke-width="1" stroke-linecap="butt" stroke-linejoin="miter" stroke-miterlimit="10" stroke-dasharray="" stroke-dashoffset="0" font-family="none" font-weight="none" font-size="none" text-anchor="none" style="mix-blend-mode: normal"><g transform="scale(5.12,5.12)"><path d="M13,3c-5.51,0 -10,4.49 -10,10v24c0,5.51 4.49,10 10,10h24c5.51,0 10,-4.49 10,-10v-24c0,-5.51 -4.49,-10 -10,-10zM25.00195,9.99805c1.104,0 2.208,0.35541 3.125,1.06641l9.09961,7.04883c0.315,0.244 0.52253,0.55939 0.64453,0.90039c0.266,0.747 0.08488,1.62059 -0.57812,2.18359l-1.03125,0.87109l-1.71094,1.44336l-5.20117,-4.03125c-1.24,-0.95 -2.77961,-1.48047 -4.34961,-1.48047c-1.57,0 -3.11961,0.53047 -4.34961,1.48047l-1.42969,1.10938l-0.37109,0.28711c-0.507,0.391 -0.51844,1.15159 -0.02344,1.55859c0.359,0.296 0.87419,0.30158 1.24219,0.01758l1.80078,-1.39258c0.57,-0.44 1.22039,-0.75016 1.90039,-0.91016c0.81,-0.2 1.65094,-0.2 2.46094,0c0.67,0.16 1.31867,0.47016 1.88867,0.91016l4.32031,3.33984l0.55078,0.42969l-4.69727,3.9707c-0.947,0.8 -2.11997,1.19922 -3.29297,1.19922c-1.173,0 -2.34597,-0.39922 -3.29297,-1.19922l-4.69727,-3.9707l-1.89258,-1.59766l-2.41016,-2.03711c-0.121,-0.102 -0.22445,-0.21398 -0.31445,-0.33398c-0.337,-0.453 -0.44761,-1.01397 -0.34961,-1.54297c0.085,-0.457 0.32442,-0.89008 0.73242,-1.20508l9.10156,-7.04883c0.917,-0.711 2.021,-1.06641 3.125,-1.06641zM15.39258,26.08203l5.02539,4.24609c1.277,1.078 2.90403,1.67188 4.58203,1.67188c1.678,0 3.30503,-0.59388 4.58203,-1.67187l5.02734,-4.24609l2.62109,2.02734c1,0.78 1.02859,2.26984 0.05859,3.08984l-9,7.60156c-1.89,1.6 -4.68812,1.6 -6.57812,0l-9,-7.60156c-0.97,-0.82 -0.94141,-2.30984 0.05859,-3.08984z"></path></g></g></svg>